<?xml version="1.0" encoding="UTF-8"?>
<svg id="Icons" xmlns="http://www.w3.org/2000/svg" viewBox="0 0 72 72">
  <defs>
    <style>
      .cls-1 {
        fill: #ffead4;
      }

      .cls-2 {
        fill: #ff928d;
      }
    </style>
  </defs>
  <path class="cls-1" d="M48.56,68.66c-1.14,0-2.06-.92-2.06-2.06v-11.56c0-.45,0-.87.01-1.26.03-2.31.04-2.79-1.06-3.89-.56-.56-.75-1.4-.49-2.15.26-.75.94-1.28,1.73-1.36,8.07-.86,16.32-3.65,16.32-17.76,0-3.43-1.32-6.67-3.71-9.13-.56-.57-.73-1.42-.45-2.16.96-2.54,1.01-5.27.17-7.82-1.36.15-4.31.88-8.98,3.99-.49.33-1.1.43-1.66.28-6.35-1.65-13.08-1.66-19.43,0-.57.15-1.18.05-1.66-.28-4.64-3.1-7.59-3.83-8.99-3.98-.83,2.54-.78,5.27.18,7.81.28.75.11,1.59-.45,2.16-2.39,2.46-3.71,5.7-3.71,9.13,0,14.11,8.25,16.89,16.32,17.76.79.08,1.46.62,1.73,1.36.27.75.08,1.58-.49,2.15-1.26,1.26-1.38,2.38-1.06,4.89.01.08.02.17.02.26v4.91s0,.06,0,.1v6.56c0,1.14-.92,2.06-2.06,2.06s-2.06-.92-2.06-2.06v-3.92c-8.88,1.8-12.48-3.45-14.93-7.03-1.19-1.73-2.21-3.23-3.4-3.58-1.09-.32-1.72-1.47-1.4-2.56s1.47-1.72,2.56-1.4c2.6.76,4.14,3.02,5.64,5.21,2.52,3.67,4.71,6.88,11.53,5.13v-3.28c-.2-1.68-.31-3.42.29-5.14-7.97-1.46-16.8-5.86-16.8-21.41,0-4.08,1.42-7.96,4.02-11.06-1.04-3.62-.78-7.45.78-10.92.25-.56.74-.98,1.34-1.15.73-.2,4.7-.91,12.48,4.06,6.47-1.54,13.25-1.54,19.72,0,7.78-4.97,11.74-4.26,12.47-4.06.6.16,1.09.58,1.34,1.15,1.56,3.47,1.83,7.3.78,10.92,2.6,3.1,4.02,6.98,4.02,11.05,0,15.56-8.85,19.96-16.83,21.41.37,1.2.35,2.43.33,3.81,0,.37-.01.77-.01,1.2v11.56c0,1.14-.92,2.06-2.06,2.06Z"/>
  <path class="cls-2" d="M46.55,66.65c-1.14,0-2.06-.92-2.06-2.06v-11.56c0-.45,0-.87.01-1.26.03-2.31.04-2.79-1.06-3.89-.56-.56-.75-1.4-.49-2.15.26-.75.94-1.28,1.73-1.36,8.07-.86,16.32-3.65,16.32-17.76,0-3.43-1.32-6.67-3.71-9.13-.56-.57-.73-1.42-.45-2.16.96-2.54,1.01-5.27.17-7.82-1.36.15-4.31.88-8.98,3.99-.49.33-1.1.43-1.66.28-6.35-1.65-13.08-1.66-19.43,0-.57.15-1.18.05-1.66-.28-4.64-3.1-7.59-3.83-8.99-3.98-.83,2.54-.78,5.27.18,7.81.28.75.11,1.59-.45,2.16-2.39,2.46-3.71,5.7-3.71,9.13,0,14.11,8.25,16.89,16.32,17.76.79.08,1.46.62,1.73,1.36.27.75.08,1.58-.49,2.15-1.26,1.26-1.38,2.38-1.06,4.89.01.08.02.17.02.26v4.91s0,.06,0,.1v6.56c0,1.14-.92,2.06-2.06,2.06s-2.06-.92-2.06-2.06v-3.92c-8.88,1.8-12.48-3.45-14.93-7.03-1.19-1.73-2.21-3.23-3.4-3.58-1.09-.32-1.72-1.47-1.4-2.56s1.47-1.72,2.56-1.4c2.6.76,4.14,3.02,5.64,5.21,2.52,3.67,4.71,6.88,11.53,5.13v-3.28c-.2-1.68-.31-3.42.29-5.14-7.97-1.46-16.8-5.86-16.8-21.41,0-4.08,1.42-7.96,4.02-11.06-1.04-3.62-.78-7.45.78-10.92.25-.56.74-.98,1.34-1.15.73-.2,4.7-.91,12.48,4.06,6.47-1.54,13.25-1.54,19.72,0,7.78-4.97,11.74-4.26,12.47-4.06.6.16,1.09.58,1.34,1.15,1.56,3.47,1.83,7.3.78,10.92,2.6,3.1,4.02,6.98,4.02,11.05,0,15.56-8.85,19.96-16.83,21.41.37,1.2.35,2.43.33,3.81,0,.37-.01.77-.01,1.2v11.56c0,1.14-.92,2.06-2.06,2.06Z"/>
</svg>